<?xml version="1.0" standalone="no"?>
<!DOCTYPE svg PUBLIC "-//W3C//DTD SVG 20010904//EN"
 "http://www.w3.org/TR/2001/REC-SVG-20010904/DTD/svg10.dtd">
<svg version="1.0" xmlns="http://www.w3.org/2000/svg"
 width="640.000000pt" height="476.000000pt" viewBox="0 0 640.000000 476.000000"
 preserveAspectRatio="xMidYMid meet">

<g transform="translate(0.000000,476.000000) scale(0.100000,-0.100000)"
fill="#000000" stroke="none">
<path d="M2625 4372 c-33 -16 -66 -37 -74 -46 -21 -25 -63 -44 -123 -57 -94
-20 -123 -44 -138 -114 -5 -25 -12 -31 -40 -35 -19 -3 -34 -11 -33 -17 1 -6 5
-47 9 -91 l7 -79 -69 -23 c-77 -25 -93 -35 -78 -50 6 -6 33 -2 77 12 36 12 69
20 71 17 3 -3 12 -63 20 -135 23 -197 41 -305 80 -467 20 -82 36 -157 36 -167
0 -10 -18 -32 -40 -50 l-39 -31 -7 28 c-12 50 -53 121 -81 140 -88 61 -193 55
-353 -18 -99 -46 -123 -65 -114 -91 7 -24 -36 -42 -141 -58 -125 -18 -194 -38
-240 -70 -76 -53 -75 -65 31 -269 87 -166 137 -241 160 -241 24 0 26 22 4 45
-18 19 -21 31 -16 59 6 29 15 40 46 56 50 25 292 109 478 165 l143 42 14 -27
c12 -23 70 -60 116 -74 9 -2 25 -26 35 -51 27 -71 9 -113 -79 -184 -76 -62
-96 -91 -97 -139 0 -66 89 -200 158 -236 19 -10 62 -21 94 -24 68 -6 85 5 120
77 l23 46 7 -65 c9 -75 50 -167 106 -231 21 -24 48 -61 60 -81 28 -45 87 -98
110 -98 23 0 152 136 152 160 0 23 31 27 48 8 6 -7 18 -43 28 -81 14 -50 20
-63 27 -51 12 20 1 89 -21 134 -15 30 -22 35 -58 38 -34 2 -43 8 -58 37 -10
18 -34 48 -53 67 -31 30 -35 31 -44 16 -14 -26 -25 -22 -48 16 -35 56 -29 82
28 110 l48 25 24 -25 c28 -29 129 -80 179 -89 48 -8 64 7 94 89 34 90 33 110
-6 139 -54 40 -80 50 -143 56 l-60 6 -3 88 c-1 48 0 87 3 87 3 0 30 -26 60
-58 30 -32 72 -67 94 -77 34 -15 43 -26 56 -66 l17 -49 63 0 c90 0 163 17 176
42 12 22 -1 118 -27 193 -14 42 -13 46 11 102 26 59 79 123 101 123 26 0 94
-96 124 -174 8 -22 6 -24 -22 -22 -27 1 -32 -4 -45 -39 -18 -51 -13 -159 9
-181 21 -22 142 -64 183 -64 44 0 70 33 86 108 14 70 7 148 -19 197 l-19 38
45 43 c43 42 44 45 40 93 -7 66 -24 90 -105 143 -87 59 -112 86 -124 138 -12
51 -2 64 82 115 l56 35 125 -7 c107 -5 129 -3 161 12 76 36 81 85 20 206 -60
119 -61 149 -5 262 50 100 53 138 15 200 -46 78 -62 82 -268 76 l-100 -3 -83
43 c-81 42 -84 43 -128 31 -48 -14 -91 -55 -113 -108 -17 -39 -22 -40 -43 -2
-22 39 -76 72 -98 60 -9 -5 -27 -24 -39 -42 -26 -38 -151 -125 -152 -106 -3
65 -16 107 -58 193 -27 55 -58 125 -70 155 -25 64 -80 142 -116 166 -29 19
-55 6 -56 -30 0 -11 -4 -30 -8 -41 -7 -18 -10 -16 -23 15 -16 37 -89 110 -111
110 -6 0 -39 -13 -72 -28z m128 -54 c17 -21 28 -40 26 -43 -3 -2 -28 11 -57
30 -28 19 -56 35 -62 35 -6 0 -8 5 -5 11 14 22 68 5 98 -33z m-127 -23 c20
-31 12 -54 -48 -133 -42 -54 -166 -155 -180 -146 -4 3 -8 22 -8 42 0 67 -8 82
-41 75 -25 -5 -29 -2 -29 17 0 39 49 75 128 94 44 11 86 29 108 47 45 35 49
36 70 4z m290 -17 c15 -18 40 -62 56 -98 16 -36 50 -107 75 -157 45 -93 61
-159 49 -207 -5 -21 -13 -26 -39 -26 -29 -1 -40 -11 -119 -119 -49 -65 -88
-123 -88 -127 -1 -8 -127 -92 -153 -103 -12 -4 -14 -12 56 189 43 122 57 154
70 152 23 -4 23 -7 -17 173 -11 51 -12 72 -4 83 6 7 13 49 16 93 4 68 8 85 28
104 13 13 24 36 24 50 0 34 13 32 46 -7z m-179 -20 l54 -33 -5 -80 c-3 -44 -7
-87 -8 -96 -2 -9 -43 -59 -91 -112 -87 -97 -99 -119 -73 -134 13 -7 10 -26
-18 -123 -59 -204 -138 -454 -151 -479 -10 -21 -13 32 -18 315 -4 186 -11 364
-16 394 -8 49 -7 57 10 70 136 103 170 135 207 190 25 37 42 74 42 91 0 16 3
29 6 29 3 0 31 -15 61 -32z m941 -281 c77 -49 134 -60 263 -53 94 6 124 4 146
-7 30 -16 73 -83 73 -113 0 -11 -21 -59 -45 -109 -61 -123 -61 -162 0 -278 50
-95 55 -127 25 -157 -23 -23 -23 -23 -188 -21 -122 2 -123 2 -175 -29 -106
-65 -123 -98 -96 -181 16 -45 43 -75 109 -117 130 -82 151 -133 84 -200 l-35
-35 -45 51 c-27 31 -67 62 -101 78 -51 25 -65 28 -168 27 -122 -1 -166 -13
-211 -58 -23 -23 -30 -25 -57 -16 -18 6 -60 11 -94 12 -35 1 -63 5 -63 9 0 4
27 22 61 40 75 40 123 81 139 120 10 25 10 36 -3 69 -18 43 -30 154 -30 273 0
108 28 163 103 201 75 39 98 63 115 121 18 61 19 104 1 179 -13 56 -13 59 14
115 47 100 104 125 178 79z m-293 -59 c68 -81 61 -114 -35 -157 -39 -17 -73
-31 -76 -31 -3 0 -3 32 1 72 6 59 13 79 38 110 17 21 34 38 38 38 4 0 19 -15
34 -32z m76 -185 c4 -131 -12 -170 -83 -208 -112 -60 -141 -108 -142 -235 -1
-104 13 -256 27 -290 21 -51 -4 -86 -98 -139 -38 -21 -82 -50 -97 -64 -16 -15
-49 -30 -80 -36 -102 -22 -165 -76 -188 -160 -8 -31 -13 -70 -25 -176 -2 -23
-12 -23 -101 1 -51 13 -77 28 -117 65 l-52 48 2 62 c2 62 1 64 -38 101 l-39
37 11 73 c12 80 20 90 89 109 79 22 190 156 190 230 0 28 110 154 246 283 84
79 105 93 236 155 126 60 150 75 193 124 28 31 53 56 58 56 4 1 7 -16 8 -36z
m-621 -332 c0 -5 -34 -39 -75 -76 -41 -37 -75 -63 -75 -58 0 11 131 143 142
143 4 0 8 -4 8 -9z m-150 -25 c0 -2 -7 -7 -16 -10 -8 -3 -12 -2 -9 4 6 10 25
14 25 6z m-276 -153 c-7 -29 -21 -50 -28 -42 -9 10 7 69 20 69 11 0 13 -7 8
-27z m224 -10 c-8 -10 -21 -34 -28 -53 -8 -19 -22 -46 -31 -60 -10 -14 -23
-44 -29 -67 -10 -42 -67 -100 -82 -85 -4 4 -8 26 -9 49 -3 50 35 107 87 129
18 8 39 24 45 36 12 24 49 68 57 68 3 0 -2 -8 -10 -17z m-492 -18 c47 -19 69
-48 94 -119 l20 -60 -26 -37 c-14 -21 -28 -55 -31 -77 l-5 -40 -92 -26 c-154
-46 -492 -164 -545 -190 -28 -14 -52 -35 -56 -47 -4 -11 -11 -17 -15 -13 -5 5
-43 76 -85 159 l-76 150 35 32 c39 36 91 52 246 77 115 18 153 37 158 80 3 20
15 32 55 53 135 69 249 89 323 58z m511 -117 c-14 -24 -37 -54 -52 -68 l-27
-25 8 30 c14 58 23 75 38 69 9 -3 21 5 32 21 27 42 29 20 1 -27z m-295 -83
c-19 -24 -20 -24 -37 -5 -10 11 -16 22 -14 23 2 2 18 14 34 26 l30 23 3 -21
c2 -12 -5 -32 -16 -46z m-53 -71 c-6 -8 -9 -21 -5 -29 3 -8 4 -15 3 -15 -1 -1
-19 -3 -41 -6 l-38 -6 7 34 c4 18 14 44 22 56 l15 24 24 -23 c18 -17 21 -25
13 -35z m101 -88 c0 -92 -41 -116 -64 -38 -5 16 -3 22 7 22 8 0 17 9 20 20 7
29 37 26 37 -4z m-98 -31 c5 -42 -1 -43 -41 -9 -40 33 -39 44 3 44 31 0 34 -3
38 -35z m168 -186 c0 -43 -16 -43 -34 1 -25 62 -22 79 9 50 15 -14 25 -35 25
-51z m-30 -77 c0 -7 -25 -37 -55 -67 -53 -53 -67 -86 -44 -100 5 -4 25 10 43
31 l32 37 70 -13 c91 -17 101 -23 114 -69 14 -55 3 -100 -31 -120 -16 -9 -38
-36 -51 -60 -32 -61 -45 -67 -113 -52 -66 15 -116 58 -164 143 -51 88 -44 111
58 193 46 36 75 68 87 95 l18 41 18 -23 c10 -13 18 -29 18 -36z m783 40 c10
-10 14 -22 10 -25 -7 -8 -43 21 -43 35 0 14 16 9 33 -10z m-413 -72 c0 -16 -4
-30 -10 -30 -5 0 -10 14 -10 30 0 17 5 30 10 30 6 0 10 -13 10 -30z m-305 -25
l30 -25 -40 7 c-48 7 -49 8 -42 28 8 20 17 19 52 -10z m215 -115 c54 -16 73
-28 95 -56 l27 -35 -42 -55 -41 -54 -42 28 c-23 16 -52 32 -63 36 -20 6 -22
13 -21 81 1 41 6 75 11 75 5 0 39 -9 76 -20z m-22 -203 l43 -29 -22 -36 c-12
-20 -24 -59 -28 -87 l-7 -50 -33 66 c-48 98 -56 187 -14 172 10 -3 37 -19 61
-36z"/>
<path d="M3964 1988 l-19 -23 25 20 c14 11 27 21 29 22 2 2 0 3 -6 3 -5 0 -18
-10 -29 -22z"/>
<path d="M4063 1999 c45 -18 44 -19 -94 -78 -45 -19 -66 -37 -56 -48 3 -2 48
14 101 36 53 23 100 41 106 41 18 0 11 46 -7 46 -10 1 -31 4 -48 8 l-30 6 28
-11z"/>
<path d="M3635 1890 c3 -5 24 -10 45 -10 21 0 42 5 45 10 4 6 -13 10 -45 10
-32 0 -49 -4 -45 -10z"/>
<path d="M3783 1874 c-37 -18 -158 -133 -192 -182 l-22 -32 25 10 c15 5 54 39
87 74 57 62 142 116 180 116 9 0 19 7 23 15 8 21 -58 20 -101 -1z"/>
<path d="M3620 1860 c-8 -5 -46 -22 -83 -36 -38 -14 -66 -28 -64 -30 2 -2 28
6 58 17 30 11 66 25 82 31 15 5 27 14 27 19 0 11 -1 11 -20 -1z"/>
<path d="M3882 1780 c0 -14 2 -19 5 -12 2 6 2 18 0 25 -3 6 -5 1 -5 -13z"/>
<path d="M4555 1762 c17 -11 36 -26 44 -36 8 -9 28 -26 45 -38 37 -26 28 -15
-42 46 -29 25 -58 46 -65 46 -7 0 2 -8 18 -18z"/>
<path d="M4379 1753 c-13 -16 -12 -17 4 -4 16 13 21 21 13 21 -2 0 -10 -8 -17
-17z"/>
<path d="M3456 1707 c3 -10 9 -15 12 -12 3 3 0 11 -7 18 -10 9 -11 8 -5 -6z"/>
<path d="M4938 1703 c7 -3 16 -2 19 1 4 3 -2 6 -13 5 -11 0 -14 -3 -6 -6z"/>
<path d="M4329 1683 c-13 -16 -12 -17 4 -4 9 7 17 15 17 17 0 8 -8 3 -21 -13z"/>
<path d="M4895 1690 c-3 -6 1 -7 9 -4 18 7 21 14 7 14 -6 0 -13 -4 -16 -10z"/>
<path d="M4915 1675 c-39 -17 -21 -18 25 0 19 7 28 14 20 14 -8 0 -28 -6 -45
-14z"/>
<path d="M5050 1668 c0 -2 11 -19 25 -38 14 -19 26 -43 26 -54 1 -16 2 -17 6
-4 5 19 -18 68 -41 87 -9 8 -16 12 -16 9z"/>
<path d="M4294 1638 l-19 -23 23 19 c12 11 22 21 22 23 0 8 -8 2 -26 -19z"/>
<path d="M3960 1586 c0 -6 96 -77 120 -90 19 -10 -21 24 -77 64 -24 17 -43 29
-43 26z"/>
<path d="M4063 1574 c-28 -12 -10 -19 53 -21 49 -2 65 0 62 10 -5 12 -92 21
-115 11z"/>
<path d="M4208 1563 c7 -3 16 -2 19 1 4 3 -2 6 -13 5 -11 0 -14 -3 -6 -6z"/>
<path d="M3610 1510 c-23 -14 10 -72 50 -87 30 -11 31 -11 17 5 -8 9 -23 34
-33 54 -15 28 -23 35 -34 28z"/>
<path d="M5112 1490 c0 -19 2 -27 5 -17 2 9 2 25 0 35 -3 9 -5 1 -5 -18z"/>
<path d="M4120 1451 c0 -6 4 -13 10 -16 6 -3 7 1 4 9 -7 18 -14 21 -14 7z"/>
<path d="M3570 1441 c-31 -8 -37 -34 -16 -66 9 -13 16 -26 16 -29 0 -2 -29
-10 -65 -17 -38 -7 -65 -18 -65 -25 0 -9 17 -8 67 7 38 10 71 19 74 19 4 0 12
-14 19 -30 7 -17 15 -29 17 -27 2 3 -4 23 -13 46 -9 23 -14 45 -10 48 3 3 1
12 -6 20 -18 22 -1 27 42 14 48 -14 51 -27 10 -36 -52 -11 -33 -23 21 -12 49
10 51 9 85 -24 18 -18 46 -50 60 -71 l27 -38 -17 -64 c-9 -36 -16 -71 -15 -78
1 -18 38 122 39 145 0 32 -118 145 -187 179 -44 21 -60 34 -51 39 15 10 3 10
-32 0z"/>
<path d="M3835 1420 c-13 -6 -15 -9 -5 -9 8 0 22 4 30 9 18 12 2 12 -25 0z"/>
<path d="M3755 1395 c-40 -18 -16 -19 26 0 19 8 27 14 19 14 -8 0 -28 -6 -45
-14z"/>
<path d="M5112 1360 c0 -14 2 -19 5 -12 2 6 2 18 0 25 -3 6 -5 1 -5 -13z"/>
<path d="M4158 1300 c-4 -41 -9 -86 -12 -100 -3 -14 1 -5 9 20 9 25 14 70 13
100 -3 55 -3 55 -10 -20z"/>
<path d="M5126 1305 c4 -16 7 -36 7 -42 1 -20 14 -15 20 7 3 11 1 18 -3 15 -5
-3 -13 7 -19 22 l-11 28 6 -30z"/>
<path d="M2965 1309 c-16 -5 -46 -11 -65 -14 -48 -6 -229 -79 -205 -83 48 -6
338 28 352 41 6 7 -31 67 -42 66 -5 0 -23 -5 -40 -10z"/>
<path d="M3185 1293 c-16 -8 -57 -42 -89 -75 l-59 -59 -71 14 c-69 14 -99 14
-60 1 10 -4 34 -13 53 -21 33 -13 33 -14 17 -32 -17 -19 -16 -20 26 -32 23 -7
49 -17 56 -22 7 -5 15 -7 19 -4 3 4 25 -11 48 -32 24 -22 68 -56 100 -77 48
-32 67 -39 122 -42 64 -4 187 20 199 39 3 5 16 9 30 9 13 0 23 3 22 8 -1 4 18
27 41 52 52 54 61 76 52 121 -5 25 -13 35 -29 37 -13 2 -24 12 -27 25 -2 12
-6 31 -8 42 -3 11 -5 -1 -6 -27 -1 -43 -3 -47 -31 -53 -31 -7 -37 -18 -39 -79
-1 -21 -6 -47 -11 -56 -14 -26 13 -33 58 -14 34 14 36 13 21 -1 -37 -38 -257
-41 -329 -5 -66 34 -85 68 -96 179 -8 80 3 92 30 32 18 -38 18 -38 46 -25 26
13 27 16 16 48 -23 67 -46 78 -101 49z"/>
<path d="M4687 1273 c-49 -50 -96 -141 -91 -177 2 -17 12 -42 24 -57 11 -16
20 -32 20 -38 0 -5 3 -11 8 -13 4 -1 14 -16 22 -33 15 -28 19 -30 70 -27 30 2
79 8 108 13 48 10 52 13 46 32 -10 36 -36 88 -41 83 -8 -8 -127 41 -137 56
-14 23 8 88 48 142 34 43 34 44 13 50 -41 11 -55 6 -90 -31z"/>
<path d="M2808 1183 c17 -7 15 -23 -4 -23 -8 0 -12 -4 -9 -10 3 -5 15 -10 26
-10 14 0 19 7 19 25 0 19 -5 25 -22 24 -13 0 -17 -3 -10 -6z"/>
<path d="M3947 1133 c-4 -3 -7 -19 -7 -35 0 -23 -6 -31 -30 -39 -16 -6 -27
-15 -24 -20 7 -12 61 -11 69 1 4 6 -1 7 -12 3 -16 -6 -16 -5 -4 10 7 9 17 14
22 11 5 -3 9 6 9 20 0 14 5 26 11 26 8 0 8 5 -1 15 -14 16 -23 19 -33 8z"/>
<path d="M3329 1090 c57 -52 79 -52 24 0 -23 22 -48 40 -55 40 -7 -1 7 -19 31
-40z"/>
<path d="M4115 1094 c-4 -16 -15 -50 -26 -76 -10 -26 -18 -64 -18 -85 2 -38 2
-37 8 8 4 26 11 53 17 60 13 17 37 109 30 116 -3 3 -8 -8 -11 -23z"/>
<path d="M2615 1070 c-4 -6 -3 -16 3 -22 6 -6 12 -6 17 2 4 6 3 16 -3 22 -6 6
-12 6 -17 -2z"/>
<path d="M2645 1000 c-10 -11 -14 -20 -9 -20 5 0 15 9 22 20 7 11 11 20 9 20
-2 0 -12 -9 -22 -20z"/>
<path d="M4240 991 c0 -6 4 -13 10 -16 6 -3 7 1 4 9 -7 18 -14 21 -14 7z"/>
<path d="M3120 925 c0 -27 7 -44 23 -59 13 -12 26 -29 29 -38 4 -9 28 -23 55
-32 26 -9 67 -27 91 -41 59 -33 53 -22 -8 16 -27 17 -50 33 -50 35 0 2 20 4
45 4 32 0 51 -6 65 -20 11 -11 23 -20 27 -20 4 0 25 -17 46 -37 l39 -38 -15
35 c-35 85 -38 88 -78 95 -21 4 -43 13 -49 21 -9 10 -17 11 -31 4 -28 -15
-148 25 -159 54 -4 11 -6 24 -4 27 2 4 -3 12 -11 19 -13 11 -15 7 -15 -25z"/>
<path d="M3622 935 c0 -16 2 -22 5 -12 2 9 2 23 0 30 -3 6 -5 -1 -5 -18z"/>
<path d="M4277 925 c9 -19 18 -33 21 -31 4 5 -26 66 -33 66 -3 0 3 -16 12 -35z"/>
<path d="M2324 901 c-41 -25 -66 -76 -52 -107 11 -23 71 -44 85 -30 4 3 -2 6
-13 7 -18 0 -18 1 1 9 18 8 17 9 -6 9 -45 2 -54 24 -23 61 15 17 37 36 48 40
18 8 18 9 3 9 -10 1 -15 6 -12 11 9 14 5 13 -31 -9z"/>
<path d="M4816 901 c-3 -4 6 -6 19 -3 14 2 25 6 25 8 0 8 -39 4 -44 -5z"/>
<path d="M4720 890 c-34 -7 -34 -7 -5 -8 17 0 41 4 55 8 33 11 0 11 -50 0z"/>
<path d="M4302 860 c0 -14 2 -19 5 -12 2 6 2 18 0 25 -3 6 -5 1 -5 -13z"/>
<path d="M4091 814 c0 -11 3 -14 6 -6 3 7 2 16 -1 19 -3 4 -6 -2 -5 -13z"/>
<path d="M4106 770 c3 -14 18 -44 34 -67 19 -28 25 -43 17 -47 -7 -2 -5 -5 5
-5 9 -1 25 -4 34 -8 11 -4 3 9 -17 29 -19 19 -45 55 -57 79 -13 24 -20 33 -16
19z"/>
<path d="M4570 775 c-7 -9 -11 -17 -9 -20 3 -2 10 5 17 15 14 24 10 26 -8 5z"/>
<path d="M3740 752 c26 -8 28 -27 14 -126 -6 -35 -4 -38 12 -32 42 16 188 56
205 56 48 0 -5 34 -94 61 -25 7 -30 4 -55 -34 l-27 -41 -3 38 c-5 56 3 70 30
55 22 -11 22 -10 7 6 -10 10 -37 19 -65 21 -34 2 -41 1 -24 -4z"/>
<path d="M3385 710 c10 -11 20 -20 23 -20 3 0 -3 9 -13 20 -10 11 -20 20 -23
20 -3 0 3 -9 13 -20z"/>
<path d="M4551 714 c0 -11 3 -14 6 -6 3 7 2 16 -1 19 -3 4 -6 -2 -5 -13z"/>
<path d="M4229 703 c-13 -16 -12 -17 4 -4 16 13 21 21 13 21 -2 0 -10 -8 -17
-17z"/>
<path d="M3491 667 c-8 -11 -1 -18 37 -35 26 -12 63 -24 82 -27 31 -5 27 -1
-33 34 -38 23 -70 41 -72 41 -1 0 -8 -6 -14 -13z"/>
<path d="M4570 654 c0 -6 7 -19 16 -30 14 -18 14 -18 3 6 -14 31 -19 36 -19
24z"/>
<path d="M4070 640 c-14 -5 -18 -8 -9 -9 9 -1 30 -4 46 -7 23 -4 30 -2 30 10
0 17 -25 19 -67 6z"/>
<path d="M4378 623 c-10 -2 -18 -8 -18 -13 0 -5 -10 -11 -22 -13 -13 -2 27 -2
87 1 61 3 112 6 114 8 2 2 -29 5 -70 5 -55 1 -66 3 -44 9 l30 8 -30 0 c-16 0
-38 -2 -47 -5z"/>
<path d="M4288 603 c7 -3 16 -2 19 1 4 3 -2 6 -13 5 -11 0 -14 -3 -6 -6z"/>
<path d="M4654 536 c43 -43 66 -56 66 -38 0 10 -20 39 -20 28 0 -4 -15 3 -32
16 -58 43 -61 41 -14 -6z"/>
<path d="M1280 275 l0 -85 1340 0 1340 0 0 85 0 85 -1340 0 -1340 0 0 -85z"/>
<path d="M329 287 c-2 -35 0 -57 6 -57 6 0 9 18 7 43 -5 71 -8 75 -13 14z"/>
<path d="M757 285 c0 -30 5 -54 9 -53 12 4 11 108 -1 108 -6 0 -9 -23 -8 -55z"/>
<path d="M810 326 c13 -16 12 -20 -3 -31 -16 -12 -16 -13 -1 -19 10 -4 14 -13
11 -26 -3 -11 -1 -20 4 -20 14 0 22 27 13 42 -4 7 -8 23 -8 37 -1 13 -8 26
-16 29 -13 5 -13 3 0 -12z"/>
<path d="M889 273 c3 -40 5 -44 12 -25 7 18 -3 72 -13 72 -2 0 -1 -21 1 -47z"/>
<path d="M687 289 c-3 -12 -2 -31 3 -42 7 -18 9 -14 9 21 1 46 -4 54 -12 21z"/>
<path d="M430 266 c0 -20 5 -36 10 -36 6 0 10 13 10 29 0 17 -4 33 -10 36 -6
4 -10 -8 -10 -29z"/>
<path d="M550 265 c0 -19 5 -35 10 -35 6 0 10 16 10 35 0 19 -4 35 -10 35 -5
0 -10 -16 -10 -35z"/>
<path d="M598 265 c2 -19 7 -35 11 -35 10 0 5 64 -5 67 -6 2 -8 -12 -6 -32z"/>
<path d="M644 265 c1 -19 6 -35 11 -35 7 0 9 15 7 35 -5 45 -19 45 -18 0z"/>
<path d="M471 269 c-1 -30 22 -55 40 -43 9 5 7 9 -6 14 -11 4 -23 18 -26 31
l-7 24 -1 -26z"/>
<path d="M390 245 c0 -8 4 -15 8 -15 5 0 9 7 9 15 0 8 -4 15 -9 15 -4 0 -8 -7
-8 -15z"/>
</g>
</svg>
